<svg width="30" height="14" viewBox="0 0 30 14" fill="none" xmlns="http://www.w3.org/2000/svg">
<path fill-rule="evenodd" clip-rule="evenodd" d="M22.6 0H7.40002C3.50002 0 0.400024 3.1 0.400024 7C0.400024 10.9 3.50002 14 7.40002 14H22.6C26.5 14 29.6 10.9 29.6 7C29.6 3.1 26.4 0 22.6 0ZM1.59998 7C1.59998 3.8 4.19998 1.2 7.39998 1.2H17.3L14.2 12.8H7.39998C4.19998 12.8 1.59998 10.2 1.59998 7Z" fill="#0066FF"/>
<path d="M24.6 4C24.8 4.2 24.8 4.6 24.6 4.8L22.5 7L24.7 9.2C24.9 9.4 24.9 9.8 24.7 10C24.5 10.2 24.1 10.2 23.9 10L21.7 7.8L19.5 10C19.3 10.2 18.9 10.2 18.7 10C18.5 9.8 18.5 9.4 18.7 9.2L20.8 7L18.6 4.8C18.4 4.6 18.4 4.2 18.6 4C18.8 3.8 19.2 3.8 19.4 4L21.6 6.2L23.8 4C24 3.8 24.4 3.8 24.6 4Z" fill="white"/>
<path d="M12.7 4.1C12.9 4.3 13 4.7 12.8 4.9L8.60003 9.8C8.50003 9.9 8.40002 10 8.30002 10C8.10002 10.1 7.80002 10.1 7.60002 9.9L5.40002 7.7C5.20002 7.5 5.20002 7.1 5.40002 6.9C5.60002 6.7 6.00002 6.7 6.20002 6.9L8.00002 8.6L11.8 4.1C12 3.9 12.4 3.9 12.7 4.1Z" fill="#0066FF"/>
</svg>
